<mxfile host="app.diagrams.net" agent="Mozilla/5.0 (Windows NT 10.0; Win64; x64) AppleWebKit/537.36 (KHTML, like Gecko) Chrome/133.0.0.0 Safari/537.36 Edg/133.0.0.0" version="26.0.16">
  <diagram name="Page-1" id="oFdJWoArPh4DE6rnn9R_">
    <mxGraphModel dx="1783" dy="934" grid="1" gridSize="10" guides="1" tooltips="1" connect="1" arrows="1" fold="1" page="1" pageScale="1" pageWidth="827" pageHeight="1169" math="0" shadow="0">
      <root>
        <mxCell id="0" />
        <mxCell id="1" parent="0" />
        <mxCell id="DNofbDAp4UMnyWNRKpoe-1" style="edgeStyle=orthogonalEdgeStyle;rounded=0;orthogonalLoop=1;jettySize=auto;html=1;entryX=0;entryY=0.5;entryDx=0;entryDy=0;" parent="1" source="DNofbDAp4UMnyWNRKpoe-2" target="DNofbDAp4UMnyWNRKpoe-4" edge="1">
          <mxGeometry relative="1" as="geometry" />
        </mxCell>
        <mxCell id="DNofbDAp4UMnyWNRKpoe-2" value="" style="ellipse;whiteSpace=wrap;html=1;fillColor=#dae8fc;strokeColor=#6c8ebf;" parent="1" vertex="1">
          <mxGeometry x="40" y="210" width="120" height="80" as="geometry" />
        </mxCell>
        <mxCell id="qXf0zwkGTIoB3gwbOQqK-2" style="edgeStyle=orthogonalEdgeStyle;rounded=0;orthogonalLoop=1;jettySize=auto;html=1;" edge="1" parent="1" source="DNofbDAp4UMnyWNRKpoe-3" target="qXf0zwkGTIoB3gwbOQqK-1">
          <mxGeometry relative="1" as="geometry" />
        </mxCell>
        <mxCell id="DNofbDAp4UMnyWNRKpoe-3" value="lista de locais" style="swimlane;fontStyle=0;childLayout=stackLayout;horizontal=1;startSize=30;horizontalStack=0;resizeParent=1;resizeParentMax=0;resizeLast=0;collapsible=1;marginBottom=0;whiteSpace=wrap;html=1;" parent="1" vertex="1">
          <mxGeometry x="240" y="205" width="140" height="90" as="geometry" />
        </mxCell>
        <mxCell id="DNofbDAp4UMnyWNRKpoe-4" value="descricao" style="text;strokeColor=none;fillColor=none;align=left;verticalAlign=middle;spacingLeft=4;spacingRight=4;overflow=hidden;points=[[0,0.5],[1,0.5]];portConstraint=eastwest;rotatable=0;whiteSpace=wrap;html=1;" parent="DNofbDAp4UMnyWNRKpoe-3" vertex="1">
          <mxGeometry y="30" width="140" height="30" as="geometry" />
        </mxCell>
        <mxCell id="DNofbDAp4UMnyWNRKpoe-5" value="observacao" style="text;strokeColor=none;fillColor=none;align=left;verticalAlign=middle;spacingLeft=4;spacingRight=4;overflow=hidden;points=[[0,0.5],[1,0.5]];portConstraint=eastwest;rotatable=0;whiteSpace=wrap;html=1;" parent="DNofbDAp4UMnyWNRKpoe-3" vertex="1">
          <mxGeometry y="60" width="140" height="30" as="geometry" />
        </mxCell>
        <mxCell id="DNofbDAp4UMnyWNRKpoe-6" value="" style="edgeStyle=orthogonalEdgeStyle;rounded=0;orthogonalLoop=1;jettySize=auto;html=1;" parent="1" source="DNofbDAp4UMnyWNRKpoe-7" target="DNofbDAp4UMnyWNRKpoe-10" edge="1">
          <mxGeometry relative="1" as="geometry" />
        </mxCell>
        <mxCell id="DNofbDAp4UMnyWNRKpoe-7" value="cadastrar local" style="rounded=1;whiteSpace=wrap;html=1;fillColor=#dae8fc;strokeColor=#6c8ebf;" parent="1" vertex="1">
          <mxGeometry x="480" y="210" width="120" height="60" as="geometry" />
        </mxCell>
        <mxCell id="DNofbDAp4UMnyWNRKpoe-8" style="edgeStyle=orthogonalEdgeStyle;rounded=0;orthogonalLoop=1;jettySize=auto;html=1;entryX=-0.025;entryY=0.658;entryDx=0;entryDy=0;entryPerimeter=0;" parent="1" source="DNofbDAp4UMnyWNRKpoe-4" target="DNofbDAp4UMnyWNRKpoe-7" edge="1">
          <mxGeometry relative="1" as="geometry" />
        </mxCell>
        <mxCell id="DNofbDAp4UMnyWNRKpoe-9" value="" style="edgeStyle=orthogonalEdgeStyle;rounded=0;orthogonalLoop=1;jettySize=auto;html=1;entryX=0.5;entryY=0;entryDx=0;entryDy=0;" parent="1" source="DNofbDAp4UMnyWNRKpoe-10" target="DNofbDAp4UMnyWNRKpoe-12" edge="1">
          <mxGeometry relative="1" as="geometry" />
        </mxCell>
        <mxCell id="DNofbDAp4UMnyWNRKpoe-10" value="modal" style="whiteSpace=wrap;html=1;rounded=1;" parent="1" vertex="1">
          <mxGeometry x="480" y="350" width="120" height="60" as="geometry" />
        </mxCell>
        <mxCell id="DNofbDAp4UMnyWNRKpoe-11" style="edgeStyle=orthogonalEdgeStyle;rounded=0;orthogonalLoop=1;jettySize=auto;html=1;entryX=0.5;entryY=0;entryDx=0;entryDy=0;" parent="1" source="DNofbDAp4UMnyWNRKpoe-12" target="DNofbDAp4UMnyWNRKpoe-16" edge="1">
          <mxGeometry relative="1" as="geometry" />
        </mxCell>
        <mxCell id="DNofbDAp4UMnyWNRKpoe-12" value="inputs" style="swimlane;fontStyle=0;childLayout=stackLayout;horizontal=1;startSize=30;horizontalStack=0;resizeParent=1;resizeParentMax=0;resizeLast=0;collapsible=1;marginBottom=0;whiteSpace=wrap;html=1;" parent="1" vertex="1">
          <mxGeometry x="470" y="450" width="140" height="90" as="geometry" />
        </mxCell>
        <mxCell id="DNofbDAp4UMnyWNRKpoe-13" value="descricao" style="text;strokeColor=none;fillColor=none;align=left;verticalAlign=middle;spacingLeft=4;spacingRight=4;overflow=hidden;points=[[0,0.5],[1,0.5]];portConstraint=eastwest;rotatable=0;whiteSpace=wrap;html=1;" parent="DNofbDAp4UMnyWNRKpoe-12" vertex="1">
          <mxGeometry y="30" width="140" height="30" as="geometry" />
        </mxCell>
        <mxCell id="DNofbDAp4UMnyWNRKpoe-14" value="observacao" style="text;strokeColor=none;fillColor=none;align=left;verticalAlign=middle;spacingLeft=4;spacingRight=4;overflow=hidden;points=[[0,0.5],[1,0.5]];portConstraint=eastwest;rotatable=0;whiteSpace=wrap;html=1;" parent="DNofbDAp4UMnyWNRKpoe-12" vertex="1">
          <mxGeometry y="60" width="140" height="30" as="geometry" />
        </mxCell>
        <mxCell id="DNofbDAp4UMnyWNRKpoe-15" value="" style="edgeStyle=orthogonalEdgeStyle;rounded=0;orthogonalLoop=1;jettySize=auto;html=1;" parent="1" source="DNofbDAp4UMnyWNRKpoe-16" target="DNofbDAp4UMnyWNRKpoe-21" edge="1">
          <mxGeometry relative="1" as="geometry" />
        </mxCell>
        <mxCell id="DNofbDAp4UMnyWNRKpoe-16" value="salvar" style="whiteSpace=wrap;html=1;rounded=1;" parent="1" vertex="1">
          <mxGeometry x="480" y="600" width="120" height="60" as="geometry" />
        </mxCell>
        <mxCell id="DNofbDAp4UMnyWNRKpoe-17" value="" style="edgeStyle=orthogonalEdgeStyle;rounded=0;orthogonalLoop=1;jettySize=auto;html=1;" parent="1" source="DNofbDAp4UMnyWNRKpoe-21" target="DNofbDAp4UMnyWNRKpoe-22" edge="1">
          <mxGeometry relative="1" as="geometry" />
        </mxCell>
        <mxCell id="DNofbDAp4UMnyWNRKpoe-18" value="yes" style="edgeLabel;html=1;align=center;verticalAlign=middle;resizable=0;points=[];fontColor=#33FF33;fontStyle=1" parent="DNofbDAp4UMnyWNRKpoe-17" vertex="1" connectable="0">
          <mxGeometry x="-0.0444" y="-3" relative="1" as="geometry">
            <mxPoint as="offset" />
          </mxGeometry>
        </mxCell>
        <mxCell id="DNofbDAp4UMnyWNRKpoe-19" value="" style="edgeStyle=orthogonalEdgeStyle;rounded=0;orthogonalLoop=1;jettySize=auto;html=1;fontStyle=1" parent="1" source="DNofbDAp4UMnyWNRKpoe-21" target="DNofbDAp4UMnyWNRKpoe-23" edge="1">
          <mxGeometry relative="1" as="geometry" />
        </mxCell>
        <mxCell id="DNofbDAp4UMnyWNRKpoe-20" value="no" style="edgeLabel;html=1;align=center;verticalAlign=middle;resizable=0;points=[];fontColor=#EA6B66;" parent="DNofbDAp4UMnyWNRKpoe-19" vertex="1" connectable="0">
          <mxGeometry x="-0.2519" relative="1" as="geometry">
            <mxPoint as="offset" />
          </mxGeometry>
        </mxCell>
        <mxCell id="DNofbDAp4UMnyWNRKpoe-21" value="validar?" style="rhombus;whiteSpace=wrap;html=1;rounded=1;fillColor=#fff2cc;strokeColor=#d6b656;" parent="1" vertex="1">
          <mxGeometry x="700" y="590" width="80" height="80" as="geometry" />
        </mxCell>
        <mxCell id="qXf0zwkGTIoB3gwbOQqK-26" value="" style="edgeStyle=orthogonalEdgeStyle;rounded=0;orthogonalLoop=1;jettySize=auto;html=1;" edge="1" parent="1" source="DNofbDAp4UMnyWNRKpoe-22" target="qXf0zwkGTIoB3gwbOQqK-25">
          <mxGeometry relative="1" as="geometry" />
        </mxCell>
        <mxCell id="DNofbDAp4UMnyWNRKpoe-22" value="executar" style="whiteSpace=wrap;html=1;rounded=1;" parent="1" vertex="1">
          <mxGeometry x="680" y="440" width="120" height="60" as="geometry" />
        </mxCell>
        <mxCell id="DNofbDAp4UMnyWNRKpoe-23" value="mostrar erro, voltar ao modal" style="whiteSpace=wrap;html=1;rounded=1;" parent="1" vertex="1">
          <mxGeometry x="680" y="760" width="120" height="60" as="geometry" />
        </mxCell>
        <mxCell id="qXf0zwkGTIoB3gwbOQqK-4" style="edgeStyle=orthogonalEdgeStyle;rounded=0;orthogonalLoop=1;jettySize=auto;html=1;entryX=0.5;entryY=0;entryDx=0;entryDy=0;" edge="1" parent="1" source="qXf0zwkGTIoB3gwbOQqK-1" target="qXf0zwkGTIoB3gwbOQqK-3">
          <mxGeometry relative="1" as="geometry" />
        </mxCell>
        <mxCell id="qXf0zwkGTIoB3gwbOQqK-1" value="editar local" style="rounded=1;whiteSpace=wrap;html=1;fillColor=#dae8fc;strokeColor=#6c8ebf;" vertex="1" parent="1">
          <mxGeometry x="250" y="340" width="120" height="60" as="geometry" />
        </mxCell>
        <mxCell id="qXf0zwkGTIoB3gwbOQqK-9" style="edgeStyle=orthogonalEdgeStyle;rounded=0;orthogonalLoop=1;jettySize=auto;html=1;entryX=0.5;entryY=0;entryDx=0;entryDy=0;" edge="1" parent="1" source="qXf0zwkGTIoB3gwbOQqK-3" target="qXf0zwkGTIoB3gwbOQqK-5">
          <mxGeometry relative="1" as="geometry" />
        </mxCell>
        <mxCell id="qXf0zwkGTIoB3gwbOQqK-3" value="modal" style="whiteSpace=wrap;html=1;rounded=1;" vertex="1" parent="1">
          <mxGeometry x="250" y="440" width="120" height="60" as="geometry" />
        </mxCell>
        <mxCell id="qXf0zwkGTIoB3gwbOQqK-13" style="edgeStyle=orthogonalEdgeStyle;rounded=0;orthogonalLoop=1;jettySize=auto;html=1;entryX=0.5;entryY=0;entryDx=0;entryDy=0;" edge="1" parent="1" source="qXf0zwkGTIoB3gwbOQqK-5" target="qXf0zwkGTIoB3gwbOQqK-10">
          <mxGeometry relative="1" as="geometry" />
        </mxCell>
        <mxCell id="qXf0zwkGTIoB3gwbOQqK-5" value="inputs" style="swimlane;fontStyle=0;childLayout=stackLayout;horizontal=1;startSize=30;horizontalStack=0;resizeParent=1;resizeParentMax=0;resizeLast=0;collapsible=1;marginBottom=0;whiteSpace=wrap;html=1;" vertex="1" parent="1">
          <mxGeometry x="240" y="550" width="140" height="120" as="geometry" />
        </mxCell>
        <mxCell id="qXf0zwkGTIoB3gwbOQqK-6" value="descricao" style="text;strokeColor=none;fillColor=none;align=left;verticalAlign=middle;spacingLeft=4;spacingRight=4;overflow=hidden;points=[[0,0.5],[1,0.5]];portConstraint=eastwest;rotatable=0;whiteSpace=wrap;html=1;" vertex="1" parent="qXf0zwkGTIoB3gwbOQqK-5">
          <mxGeometry y="30" width="140" height="30" as="geometry" />
        </mxCell>
        <mxCell id="qXf0zwkGTIoB3gwbOQqK-7" value="observacao" style="text;strokeColor=none;fillColor=none;align=left;verticalAlign=middle;spacingLeft=4;spacingRight=4;overflow=hidden;points=[[0,0.5],[1,0.5]];portConstraint=eastwest;rotatable=0;whiteSpace=wrap;html=1;" vertex="1" parent="qXf0zwkGTIoB3gwbOQqK-5">
          <mxGeometry y="60" width="140" height="30" as="geometry" />
        </mxCell>
        <mxCell id="qXf0zwkGTIoB3gwbOQqK-8" value="status" style="text;strokeColor=none;fillColor=none;align=left;verticalAlign=middle;spacingLeft=4;spacingRight=4;overflow=hidden;points=[[0,0.5],[1,0.5]];portConstraint=eastwest;rotatable=0;whiteSpace=wrap;html=1;" vertex="1" parent="qXf0zwkGTIoB3gwbOQqK-5">
          <mxGeometry y="90" width="140" height="30" as="geometry" />
        </mxCell>
        <mxCell id="qXf0zwkGTIoB3gwbOQqK-17" style="edgeStyle=orthogonalEdgeStyle;rounded=0;orthogonalLoop=1;jettySize=auto;html=1;" edge="1" parent="1" source="qXf0zwkGTIoB3gwbOQqK-10" target="qXf0zwkGTIoB3gwbOQqK-14">
          <mxGeometry relative="1" as="geometry" />
        </mxCell>
        <mxCell id="qXf0zwkGTIoB3gwbOQqK-10" value="salvar" style="whiteSpace=wrap;html=1;rounded=1;" vertex="1" parent="1">
          <mxGeometry x="250" y="720" width="120" height="60" as="geometry" />
        </mxCell>
        <mxCell id="qXf0zwkGTIoB3gwbOQqK-11" value="fechar" style="whiteSpace=wrap;html=1;rounded=1;" vertex="1" parent="1">
          <mxGeometry x="50" y="585" width="120" height="60" as="geometry" />
        </mxCell>
        <mxCell id="qXf0zwkGTIoB3gwbOQqK-12" style="edgeStyle=orthogonalEdgeStyle;rounded=0;orthogonalLoop=1;jettySize=auto;html=1;entryX=1;entryY=0.5;entryDx=0;entryDy=0;" edge="1" parent="1" source="qXf0zwkGTIoB3gwbOQqK-7" target="qXf0zwkGTIoB3gwbOQqK-11">
          <mxGeometry relative="1" as="geometry" />
        </mxCell>
        <mxCell id="qXf0zwkGTIoB3gwbOQqK-18" value="" style="edgeStyle=orthogonalEdgeStyle;rounded=0;orthogonalLoop=1;jettySize=auto;html=1;" edge="1" parent="1" source="qXf0zwkGTIoB3gwbOQqK-14" target="qXf0zwkGTIoB3gwbOQqK-15">
          <mxGeometry relative="1" as="geometry" />
        </mxCell>
        <mxCell id="qXf0zwkGTIoB3gwbOQqK-19" value="" style="edgeStyle=orthogonalEdgeStyle;rounded=0;orthogonalLoop=1;jettySize=auto;html=1;" edge="1" parent="1" source="qXf0zwkGTIoB3gwbOQqK-14" target="qXf0zwkGTIoB3gwbOQqK-16">
          <mxGeometry relative="1" as="geometry" />
        </mxCell>
        <mxCell id="qXf0zwkGTIoB3gwbOQqK-14" value="validar?" style="rhombus;whiteSpace=wrap;html=1;rounded=1;fillColor=#fff2cc;strokeColor=#d6b656;" vertex="1" parent="1">
          <mxGeometry x="260" y="830" width="80" height="80" as="geometry" />
        </mxCell>
        <mxCell id="qXf0zwkGTIoB3gwbOQqK-15" value="mostrar erro, voltar ao modal" style="whiteSpace=wrap;html=1;rounded=1;" vertex="1" parent="1">
          <mxGeometry x="390" y="840" width="120" height="60" as="geometry" />
        </mxCell>
        <mxCell id="qXf0zwkGTIoB3gwbOQqK-24" style="edgeStyle=orthogonalEdgeStyle;rounded=0;orthogonalLoop=1;jettySize=auto;html=1;entryX=0.5;entryY=1;entryDx=0;entryDy=0;" edge="1" parent="1" source="qXf0zwkGTIoB3gwbOQqK-16" target="qXf0zwkGTIoB3gwbOQqK-23">
          <mxGeometry relative="1" as="geometry" />
        </mxCell>
        <mxCell id="qXf0zwkGTIoB3gwbOQqK-16" value="executar" style="whiteSpace=wrap;html=1;rounded=1;" vertex="1" parent="1">
          <mxGeometry x="60" y="840" width="120" height="60" as="geometry" />
        </mxCell>
        <mxCell id="qXf0zwkGTIoB3gwbOQqK-20" value="no" style="edgeLabel;html=1;align=center;verticalAlign=middle;resizable=0;points=[];fontColor=#EA6B66;" vertex="1" connectable="0" parent="1">
          <mxGeometry x="750" y="713.3333333333333" as="geometry">
            <mxPoint x="-392" y="154" as="offset" />
          </mxGeometry>
        </mxCell>
        <mxCell id="qXf0zwkGTIoB3gwbOQqK-22" value="yes" style="edgeLabel;html=1;align=center;verticalAlign=middle;resizable=0;points=[];fontColor=#33FF33;fontStyle=1" vertex="1" connectable="0" parent="1">
          <mxGeometry x="753" y="556.6666666666667" as="geometry">
            <mxPoint x="-535" y="312" as="offset" />
          </mxGeometry>
        </mxCell>
        <mxCell id="qXf0zwkGTIoB3gwbOQqK-23" value="fechar modal" style="whiteSpace=wrap;html=1;rounded=1;" vertex="1" parent="1">
          <mxGeometry x="60" y="730" width="120" height="60" as="geometry" />
        </mxCell>
        <mxCell id="qXf0zwkGTIoB3gwbOQqK-25" value="fecha modal" style="whiteSpace=wrap;html=1;rounded=1;" vertex="1" parent="1">
          <mxGeometry x="680" y="320" width="120" height="60" as="geometry" />
        </mxCell>
      </root>
    </mxGraphModel>
  </diagram>
</mxfile>
